<svg xmlns="http://www.w3.org/2000/svg" xmlns:xlink="http://www.w3.org/1999/xlink" version="1.0" x="0px" y="0px" viewBox="0 0 24 24" enable-background="new 0 0 24 24" xml:space="preserve"><path d="M5.9,2.2L10,6.3c0,0,0,1.2-1.2,2.5C7.5,10,6.3,10,6.3,10L2.2,5.9C1.6,8.2,2.4,11,4.1,12.7c2.6,2.6,5.8,0.3,6.5,1  c3.6,3.6,6.5,7.3,6.7,7.5c1.1,1.1,2.9,1.1,3.9,0.1c1.1-1.1,1-2.8-0.1-3.9c-0.1-0.1-4-3.2-7.6-6.8c-0.7-0.7,1.8-3.8-0.9-6.5  C11,2.4,8.2,1.6,5.9,2.2z M20.2,19c0,0.7-0.5,1.2-1.2,1.2s-1.2-0.5-1.2-1.2s0.5-1.2,1.2-1.2S20.2,18.3,20.2,19z"></path></svg>