<?xml version="1.0" encoding="UTF-8" standalone="no"?>
<svg
   xmlns:dc="http://purl.org/dc/elements/1.1/"
   xmlns:cc="http://creativecommons.org/ns#"
   xmlns:rdf="http://www.w3.org/1999/02/22-rdf-syntax-ns#"
   xmlns:svg="http://www.w3.org/2000/svg"
   xmlns="http://www.w3.org/2000/svg"
   xmlns:sodipodi="http://sodipodi.sourceforge.net/DTD/sodipodi-0.dtd"
   xmlns:inkscape="http://www.inkscape.org/namespaces/inkscape"
   version="1.1"
   x="0px"
   y="0px"
   viewBox="0 0 20 20"
   enable-background="new 0 0 512 512"
   xml:space="preserve"
   id="svg79"
   sodipodi:docname="icon-build.svg"
   width="20"
   height="20"
   inkscape:version="0.92.1 r15371"><metadata
     id="metadata85"><rdf:RDF><cc:Work
         rdf:about=""><dc:format>image/svg+xml</dc:format><dc:type
           rdf:resource="http://purl.org/dc/dcmitype/StillImage" /><dc:title></dc:title></cc:Work></rdf:RDF></metadata><defs
     id="defs83" /><sodipodi:namedview
     pagecolor="#ffffff"
     bordercolor="#666666"
     borderopacity="1"
     objecttolerance="10"
     gridtolerance="10"
     guidetolerance="10"
     inkscape:pageopacity="0"
     inkscape:pageshadow="2"
     inkscape:window-width="1366"
     inkscape:window-height="716"
     id="namedview81"
     showgrid="false"
     fit-margin-top="0"
     fit-margin-left="0"
     fit-margin-right="0"
     fit-margin-bottom="0"
     inkscape:zoom="11.8"
     inkscape:cx="5.599876"
     inkscape:cy="15.643248"
     inkscape:window-x="-8"
     inkscape:window-y="-8"
     inkscape:window-maximized="1"
     inkscape:current-layer="svg79" /><path
     d="M 17.9952,16.998134 V 12.999201 H 15.995733 V 9.7307395 C 16.427618,9.4801397 16.763528,9.0802464 16.912822,8.563051 17.222073,7.5020007 16.614235,6.3929632 15.553184,6.0837124 14.993334,5.9184231 14.422819,6.0197295 13.958943,6.2969888 L 5.993068,1.9461495 C 5.9664084,0.86377149 5.086643,1.9073486e-6 3.9989333,1.9073486e-6 2.8952277,1.9073486e-6 1.9994666,0.89576296 1.9994666,1.9994686 c 0,0.7358037 0.4052253,1.375633 1.0023993,1.7222072 v 6.2756593 c 0,0.5545189 0.4478805,1.0023989 1.0023993,1.0023989 1.1037055,0 1.9994666,0.895761 1.9994666,1.999467 0,1.103706 -0.8957611,1.999467 -1.9994666,1.999467 -1.1037056,0 -2.0047986,-0.901093 -2.0047986,-1.999467 H 0 c 0,2.207411 1.7915221,3.998933 3.9989333,3.998933 2.2074111,0 3.9989332,-1.791522 3.9989332,-3.998933 0,-1.860837 -1.2743267,-3.4284188 -3.0018659,-3.8709674 V 3.7216758 c 0.010664,-0.00533 0.021328,-0.010664 0.037323,-0.021328 l 7.9712074,4.3508393 c 0.016,0.6878166 0.389229,1.322314 0.991735,1.6742201 V 12.999201 H 11.9968 v 3.998933 H 9.9973331 V 20 h 9.9973329 v -3.001866 z"
     id="path73"
     inkscape:connector-curvature="0"
     style="stroke-width:0.99999988" /></svg>