<svg xmlns="http://www.w3.org/2000/svg" width="20" height="20"><path d="M8.546 13.207h6.578c.511 0 1.011-.52.985-1.13-.027-.61-.434-1.13-.985-1.13H8.546c-.513 0-1.01.52-.984 1.13.026.61.433 1.13.984 1.13z"/><path d="M4.549 4.154a.835.835 0 00-.837.837v14.172c0 .464.372.837.837.837h14.57a.836.836 0 00.84-.837V4.99a.836.836 0 00-.84-.837zm1.72 2.435H17.4c.066 0 .118.052.118.117v10.742a.117.117 0 01-.118.118H6.27a.117.117 0 01-.118-.118V6.706c0-.065.053-.117.118-.117z"/><path d="M.863.023A.834.834 0 00.025.86v14.172c0 .465.374.838.838.838h2.848v-2.435H2.582a.116.116 0 01-.117-.118V2.574c0-.065.052-.117.117-.117h11.13c.066 0 .118.052.118.117v1.58h2.441V.86a.834.834 0 00-.837-.836H.864z"/><path d="M10.706 8.788v6.578c0 .512.52 1.011 1.13.985.608-.027 1.129-.434 1.129-.985V8.788c0-.513-.52-1.01-1.13-.984-.61.026-1.13.433-1.13.984z"/></svg>