<?xml version="1.0" encoding="UTF-8" standalone="no"?>
<svg
   xmlns:dc="http://purl.org/dc/elements/1.1/"
   xmlns:cc="http://creativecommons.org/ns#"
   xmlns:rdf="http://www.w3.org/1999/02/22-rdf-syntax-ns#"
   xmlns:svg="http://www.w3.org/2000/svg"
   xmlns="http://www.w3.org/2000/svg"
   xmlns:sodipodi="http://sodipodi.sourceforge.net/DTD/sodipodi-0.dtd"
   xmlns:inkscape="http://www.inkscape.org/namespaces/inkscape"
   version="1.1"
   x="0px"
   y="0px"
   viewBox="0 0 20 20"
   enable-background="new 0 0 512 512"
   xml:space="preserve"
   id="svg79"
   sodipodi:docname="icons-all.svg"
   width="20"
   height="20"
   inkscape:version="0.92.1 r15371"><metadata
     id="metadata85"><rdf:RDF><cc:Work
         rdf:about=""><dc:format>image/svg+xml</dc:format><dc:type
           rdf:resource="http://purl.org/dc/dcmitype/StillImage" /><dc:title /></cc:Work></rdf:RDF></metadata><defs
     id="defs83" /><sodipodi:namedview
     pagecolor="#ffffff"
     bordercolor="#666666"
     borderopacity="1"
     objecttolerance="10"
     gridtolerance="10"
     guidetolerance="10"
     inkscape:pageopacity="0"
     inkscape:pageshadow="2"
     inkscape:window-width="1366"
     inkscape:window-height="716"
     id="namedview81"
     showgrid="false"
     fit-margin-top="0"
     fit-margin-left="0"
     fit-margin-right="0"
     fit-margin-bottom="0"
     inkscape:zoom="8"
     inkscape:cx="2.064785"
     inkscape:cy="-0.39317003"
     inkscape:window-x="-8"
     inkscape:window-y="-8"
     inkscape:window-maximized="1"
     inkscape:current-layer="layer1" /><g
     inkscape:groupmode="layer"
     id="layer1"
     inkscape:label="Layer 1"
     style="display:inline"><path
       d="m 16.076703,0.16204831 -4.1,4.09999999 c 0,0 0,1.2 1.2,2.5 1.3,1.2 2.5,1.2 2.5,1.2 l 4.1,-4.1 c 0.6,2.3 -0.2,5.1 -1.9,6.7999997 -2.6,2.6 -5.8,0.3 -6.5,1 -3.5999998,3.6 -6.4999998,7.3 -6.6999998,7.5 -1.100001,1.1 -2.900001,1.1 -3.900001,0.1 -1.1,-1.1 -1,-2.8 0.1,-3.9 0.1,-0.1 4.000001,-3.2 7.600001,-6.7999997 0.7,-0.7 -1.8,-3.8 0.9,-6.5 C 10.976703,0.36204831 13.776703,-0.43795169 16.076703,0.16204831 Z M 1.7767022,16.962048 c 0,0.7 0.5,1.2 1.2,1.2 0.700001,0 1.200001,-0.5 1.200001,-1.2 0,-0.7 -0.5,-1.2 -1.200001,-1.2 -0.7,0 -1.2,0.5 -1.2,1.2 z"
       id="wrench"
       inkscape:connector-curvature="0"
       inkscape:label="#path107" /><g
       transform="matrix(0.39853074,0,0,0.39853074,-9.9646869,-10.742953)"
       id="menu"
       style="stroke-width:2.50921679"
       inkscape:label="#g16"><path
         inkscape:connector-curvature="0"
         d="M 29.1,37.4 H 61 c 2.2,0 4,-1.8 4,-4 0,-2.2 -1.8,-4 -4,-4 H 29.1 c -2.2,0 -4,1.8 -4,4 0,2.2 1.8,4 4,4 z"
         id="path10"
         style="stroke-width:2.50921679" /><path
         inkscape:connector-curvature="0"
         d="M 60.9,62.6 H 29.1 c -2.2,0 -4,1.8 -4,4 0,2.2 1.8,4 4,4 H 61 c 2.2,0 4,-1.8 4,-4 0,-2.2 -1.9,-4 -4.1,-4 z"
         id="path12"
         style="stroke-width:2.50921679" /><path
         inkscape:connector-curvature="0"
         d="M 70.9,46 H 29.1 c -2.2,0 -4,1.8 -4,4 0,2.2 1.8,4 4,4 H 71 c 2.2,0 4,-1.8 4,-4 0,-2.2 -1.9,-4 -4.1,-4 z"
         id="path14"
         style="stroke-width:2.50921679" /></g><g
       transform="matrix(0.24390229,0,0,0.24390229,-2.0975568,-234.47843)"
       id="flash"
       style="stroke-width:4.10000277"
       inkscape:label="#g78"><path
         inkscape:connector-curvature="0"
         d="m 45,961.36215 -18,40.99995 h 14 l -16,41.0001 50,-54.00009 H 54 l 12,-27.99996 z"
         style="color:#000000;display:inline;overflow:visible;visibility:visible;fill:#000000;stroke:none;stroke-width:4.10000277;enable-background:accumulate"
         marker="none"
         visibility="visible"
         display="inline"
         overflow="visible"
         id="path76" /></g><g
       transform="matrix(0.28571416,0,0,0.28571416,-4.2115892,-276.38907)"
       id="arrowUp"
       style="stroke-width:3.50000143"
       inkscape:label="#g152"><path
         inkscape:connector-curvature="0"
         style="color:#000000;display:inline;overflow:visible;visibility:visible;fill:#000000;stroke:none;stroke-width:3.50000143;enable-background:accumulate"
         d="m 50,967.36217 -25,24 h 14 v 46.00003 h 22 v -46.00003 h 14 z"
         marker="none"
         visibility="visible"
         display="inline"
         overflow="visible"
         id="path150" /></g><g
       transform="matrix(0.2857142,0,0,0.2857142,-4.16071,-276.38911)"
       id="arrowDown"
       style="stroke-width:3.50000095"
       inkscape:label="#g276"><path
         inkscape:connector-curvature="0"
         style="color:#000000;display:inline;overflow:visible;visibility:visible;fill:#000000;stroke:none;stroke-width:3.50000095;enable-background:accumulate"
         d="m 49.999995,1037.3622 25.00001,-24 h -14 v -46.00002 h -22.00001 v 46.00002 h -14 z"
         marker="none"
         visibility="visible"
         display="inline"
         overflow="visible"
         id="path274" /></g><polygon
       transform="matrix(0.41390728,0,0,0.41390728,-10.695364,-10.695364)"
       points="25.84,65.67 34.33,74.16 50,58.48 65.67,74.16 74.16,65.67 58.48,50 74.16,34.33 65.67,25.84 50,41.52 34.33,25.84 25.84,34.33 41.52,50 "
       id="close"
       style="stroke-width:2.41599989"
       inkscape:label="#polygon328" /><g
       transform="matrix(0.26315786,0,0,0.26315786,-2.7631572,-253.77949)"
       id="trash"
       style="stroke-width:3.80000043"
       inkscape:label="#g426"><path
         inkscape:connector-curvature="0"
         style="color:#000000;display:inline;overflow:visible;visibility:visible;fill:#000000;stroke:none;stroke-width:3.80000043;enable-background:accumulate"
         d="m 43,964.36219 c -1.511,0 -3,1.338 -3,3 v 3 h 20 v -3 c 0,-1.662 -1.4891,-3 -3,-3 z m -21,8 c -1.108,0 -2,0.89199 -2,2 v 10 c 0,1.10801 0.892,2 2,2 h 56 c 1.108,0 2,-0.89199 2,-2 v -10 c 0,-1.10801 -0.892,-2 -2,-2 z m 4,16 v 50.00001 c 0,1.108 0.892,2 2,2 h 44 c 1.108,0 2,-0.892 2,-2 v -50.00001 z"
         marker="none"
         visibility="visible"
         display="inline"
         overflow="visible"
         id="path424" /></g><g
       transform="matrix(0.25641667,0,0,0.25641667,23.163229,-232.085)"
       id="g374"
       style="stroke-width:3.89990234" /></g><g
     inkscape:groupmode="layer"
     id="layer2"
     inkscape:label="Layer 2"
     style="display:inline" /></svg>