<svg xmlns:dc="http://purl.org/dc/elements/1.1" xmlns:cc="http://creativecommons.org/ns#/" xmlns:rdf="http://www.w3.org/1999/02/22-rdf-syntax-ns#" xmlns:svg="http://www.w3.org/2000/svg" xmlns="http://www.w3.org/2000/svg" version="1.1" xml:space="preserve" x="0px" y="0px">
	<symbol id="icon-power" viewBox="0 0 79.001 100">
		<path d="M 30.720839,0.30508476 L 69.280161,0.40348861 L 44.280161,35.474577 L 68.432703,35.474577 L 10.381856,99.881352 L 31.144568,55.389831 L 8.686941,55.389831 z" style="" fill="#000000" fill-opacity="1" stroke="none"></path>
	</symbol>
	<symbol id="icon-build" viewBox="0 0 512 640">
		<path d="M406,387.3v-75h-37.5v-61.3c8.1-4.7,14.4-12.2,17.2-21.9c5.8-19.9-5.6-40.7-25.5-46.5c-10.5-3.1-21.2-1.2-29.9,4L180.9,105  c-0.5-20.3-17-36.5-37.4-36.5c-20.7,0-37.5,16.8-37.5,37.5c0,13.8,7.6,25.8,18.8,32.3V256c0,10.4,8.4,18.8,18.8,18.8  c20.7,0,37.5,16.8,37.5,37.5s-16.8,37.5-37.5,37.5S106,332.9,106,312.3H68.5c0,41.4,33.6,75,75,75s75-33.6,75-75  c0-34.9-23.9-64.3-56.3-72.6V138.3c0.2-0.1,0.4-0.2,0.7-0.4l149.5,81.6c0.3,12.9,7.3,24.8,18.6,31.4v61.4h-37.5v75H256v56.3h187.5  v-56.3H406z"></path>
	</symbol>
</svg>