<svg xmlns="http://www.w3.org/2000/svg" xmlns:xlink="http://www.w3.org/1999/xlink" version="1.1" x="0px" y="0px" viewBox="0 0 500 625" enable-background="new 0 0 500 500" xml:space="preserve"><g><g><g><g><path d="M459.3,447.2c-11.7,0-23.3,0-35,0c-27.8,0-55.7,0-83.5,0c-33.8,0-67.7,0-101.5,0c-29.3,0-58.5,0-87.8,0      c-14.1,0-28.5-0.8-42.6,0c-0.2,0-0.4,0-0.6,0c5,5,10,10,15,15c0-11.7,0-23.3,0-35c0-27.8,0-55.7,0-83.5c0-33.8,0-67.7,0-101.5      c0-29.3,0-58.5,0-87.8c0-14.1,0.8-28.5,0-42.6c0-0.2,0-0.4,0-0.6c-5,5-10,10-15,15c11.7,0,23.3,0,35,0c27.8,0,55.7,0,83.5,0      c33.8,0,67.7,0,101.5,0c29.3,0,58.5,0,87.8,0c14.1,0,28.5,0.8,42.6,0c0.2,0,0.4,0,0.6,0c-5-5-10-10-15-15c0,11.7,0,23.3,0,35      c0,27.8,0,55.7,0,83.5c0,33.8,0,67.7,0,101.5c0,29.3,0,58.5,0,87.8c0,14.2-0.5,28.4,0,42.6c0,0.2,0,0.4,0,0.6      c0,7.8,6.9,15.4,15,15c8.1-0.4,15-6.6,15-15c0-11.7,0-23.3,0-35c0-27.8,0-55.7,0-83.5c0-33.8,0-67.7,0-101.5      c0-29.3,0-58.5,0-87.8c0-14.2,0.5-28.4,0-42.6c0-0.2,0-0.4,0-0.6c0-8.1-6.9-15-15-15c-11.7,0-23.3,0-35,0c-27.8,0-55.7,0-83.5,0      c-33.8,0-67.7,0-101.5,0c-29.3,0-58.5,0-87.8,0c-14.2,0-28.4-0.5-42.6,0c-0.2,0-0.4,0-0.6,0c-8.1,0-15,6.9-15,15      c0,11.7,0,23.3,0,35c0,27.8,0,55.7,0,83.5c0,33.8,0,67.7,0,101.5c0,29.3,0,58.5,0,87.8c0,14.2-0.5,28.4,0,42.6      c0,0.2,0,0.4,0,0.6c0,8.1,6.9,15,15,15c11.7,0,23.3,0,35,0c27.8,0,55.7,0,83.5,0c33.8,0,67.7,0,101.5,0c29.3,0,58.5,0,87.8,0      c14.2,0,28.4,0.5,42.6,0c0.2,0,0.4,0,0.6,0c7.8,0,15.4-6.9,15-15C473.9,454.1,467.7,447.2,459.3,447.2z"/></g></g><g><g><path d="M108.3,373.8c-22.5,0-45.1,0-67.6,0c5,5,10,10,15,15c0-11.7,0-23.3,0-35c0-27.8,0-55.7,0-83.5      c0-33.8,0-67.7,0-101.5c0-29.3,0-58.5,0-87.8c0-14.1,0.8-28.5,0-42.6c0-0.2,0-0.4,0-0.6c-5,5-10,10-15,15c11.7,0,23.3,0,35,0      c27.8,0,55.7,0,83.5,0c33.8,0,67.7,0,101.5,0c29.3,0,58.5,0,87.8,0c14.1,0,28.5,0.8,42.6,0c0.2,0,0.4,0,0.6,0c-5-5-10-10-15-15      c0,24.5,0,48.9,0,73.4c0,7.8,6.9,15.4,15,15c8.1-0.4,15-6.6,15-15c0-24.5,0-48.9,0-73.4c0-8.1-6.9-15-15-15c-11.7,0-23.3,0-35,0      c-27.8,0-55.7,0-83.5,0c-33.8,0-67.7,0-101.5,0c-29.3,0-58.5,0-87.8,0c-14.2,0-28.4-0.5-42.6,0c-0.2,0-0.4,0-0.6,0      c-8.1,0-15,6.9-15,15c0,11.7,0,23.3,0,35c0,27.8,0,55.7,0,83.5c0,33.8,0,67.7,0,101.5c0,29.3,0,58.5,0,87.8      c0,14.2-0.5,28.4,0,42.6c0,0.2,0,0.4,0,0.6c0,8.1,6.9,15,15,15c22.5,0,45.1,0,67.6,0c7.8,0,15.4-6.9,15-15      C122.9,380.7,116.7,373.8,108.3,373.8L108.3,373.8z"/></g></g></g><g><g><path d="M268.1,236.4c0,29.2,0,58.4,0,87.6c0,4.2,0,8.4,0,12.6c0,7.8,6.9,15.4,15,15c8.1-0.4,15-6.6,15-15     c0-29.2,0-58.4,0-87.6c0-4.2,0-8.4,0-12.6c0-7.8-6.9-15.4-15-15C275,221.8,268.1,228,268.1,236.4L268.1,236.4z"/></g></g><g><g><path d="M233,301.5c29.2,0,58.4,0,87.6,0c4.2,0,8.4,0,12.6,0c7.8,0,15.4-6.9,15-15c-0.4-8.1-6.6-15-15-15     c-29.2,0-58.4,0-87.6,0c-4.2,0-8.4,0-12.6,0c-7.8,0-15.4,6.9-15,15C218.4,294.6,224.6,301.5,233,301.5L233,301.5z"/></g></g></g><text x="0" y="515" fill="#000000" font-size="5px" font-weight="bold" font-family="'Helvetica Neue', Helvetica, Arial-Unicode, Arial, Sans-serif">Created by Neha Tyagi</text><text x="0" y="520" fill="#000000" font-size="5px" font-weight="bold" font-family="'Helvetica Neue', Helvetica, Arial-Unicode, Arial, Sans-serif">from the Noun Project</text></svg>