<?xml version="1.0" encoding="UTF-8" standalone="no"?>
<svg
   xmlns:dc="http://purl.org/dc/elements/1.1/"
   xmlns:cc="http://creativecommons.org/ns#"
   xmlns:rdf="http://www.w3.org/1999/02/22-rdf-syntax-ns#"
   xmlns:svg="http://www.w3.org/2000/svg"
   xmlns="http://www.w3.org/2000/svg"
   xmlns:sodipodi="http://sodipodi.sourceforge.net/DTD/sodipodi-0.dtd"
   xmlns:inkscape="http://www.inkscape.org/namespaces/inkscape"
   version="1.1"
   x="0px"
   y="0px"
   viewBox="0 0 20 20"
   enable-background="new 0 0 512 512"
   xml:space="preserve"
   id="svg79"
   sodipodi:docname="icons-all.svg"
   width="20"
   height="20"
   inkscape:version="0.92.1 r15371"><metadata
     id="metadata85"><rdf:RDF><cc:Work
         rdf:about=""><dc:format>image/svg+xml</dc:format><dc:type
           rdf:resource="http://purl.org/dc/dcmitype/StillImage" /><dc:title></dc:title></cc:Work></rdf:RDF></metadata><defs
     id="defs83" /><sodipodi:namedview
     pagecolor="#ffffff"
     bordercolor="#666666"
     borderopacity="1"
     objecttolerance="10"
     gridtolerance="10"
     guidetolerance="10"
     inkscape:pageopacity="0"
     inkscape:pageshadow="2"
     inkscape:window-width="1366"
     inkscape:window-height="716"
     id="namedview81"
     showgrid="false"
     fit-margin-top="0"
     fit-margin-left="0"
     fit-margin-right="0"
     fit-margin-bottom="0"
     inkscape:zoom="16.68772"
     inkscape:cx="19.379416"
     inkscape:cy="15.737512"
     inkscape:window-x="-8"
     inkscape:window-y="-8"
     inkscape:window-maximized="1"
     inkscape:current-layer="svg79" /><path
     d="m 8.425532,0 7.744681,0.019764 -5.021277,7.0440654 H 16 L 4.3404255,20 8.510638,11.06383 H 4 Z"
     style="fill:#000000;fill-opacity:1;stroke:none;stroke-width:0.99999994"
     id="path63"
     inkscape:connector-curvature="0" /><path
     d="m 16.076703,0.16205314 -4.1,4.09999996 c 0,0 0,1.2 1.2,2.4999996 1.3,1.2 2.5,1.2 2.5,1.2 l 4.1,-4.0999996 c 0.6,2.2999996 -0.2,5.0999996 -1.9,6.7999999 -2.6,2.6 -5.8,0.3 -6.5,1 -3.6000005,3.6 -6.5000005,7.3 -6.7000005,7.5 -1.1000003,1.1 -2.9000003,1.1 -3.9000003,0.1 -1.1,-1.1 -1,-2.8 0.1,-3.9 0.1,-0.1 4.0000003,-3.2 7.6000003,-6.8000003 0.7,-0.7 -1.8,-3.7999996 0.9,-6.4999996 1.6000005,-1.69999996 4.4000005,-2.5 6.7000005,-1.89999996 z M 1.7767022,16.962053 c 0,0.7 0.5,1.2 1.2,1.2 0.7000003,0 1.2000003,-0.5 1.2000003,-1.2 0,-0.7 -0.5,-1.2 -1.2000003,-1.2 -0.7,0 -1.2,0.5 -1.2,1.2 z"
     id="path107"
     inkscape:connector-curvature="0" /></svg>