<svg xmlns="http://www.w3.org/2000/svg" xmlns:xlink="http://www.w3.org/1999/xlink" version="1.1" x="0px" y="0px" viewBox="0 0 512 640" enable-background="new 0 0 512 512" xml:space="preserve"><path d="M406,387.3v-75h-37.5v-61.3c8.1-4.7,14.4-12.2,17.2-21.9c5.8-19.9-5.6-40.7-25.5-46.5c-10.5-3.1-21.2-1.2-29.9,4L180.9,105  c-0.5-20.3-17-36.5-37.4-36.5c-20.7,0-37.5,16.8-37.5,37.5c0,13.8,7.6,25.8,18.8,32.3V256c0,10.4,8.4,18.8,18.8,18.8  c20.7,0,37.5,16.8,37.5,37.5s-16.8,37.5-37.5,37.5S106,332.9,106,312.3H68.5c0,41.4,33.6,75,75,75s75-33.6,75-75  c0-34.9-23.9-64.3-56.3-72.6V138.3c0.2-0.1,0.4-0.2,0.7-0.4l149.5,81.6c0.3,12.9,7.3,24.8,18.6,31.4v61.4h-37.5v75H256v56.3h187.5  v-56.3H406z"/><text x="0" y="527" fill="#000000" font-size="5px" font-weight="bold" font-family="'Helvetica Neue', Helvetica, Arial-Unicode, Arial, Sans-serif">Created by Creative Stall</text><text x="0" y="532" fill="#000000" font-size="5px" font-weight="bold" font-family="'Helvetica Neue', Helvetica, Arial-Unicode, Arial, Sans-serif">from the Noun Project</text></svg>